<svg data-v-70b83f88="" version="1.0" xmlns="http://www.w3.org/2000/svg" xmlns:xlink="http://www.w3.org/1999/xlink" width="100%" height="100%" viewBox="0 0 340.000000 250.000000" preserveAspectRatio="xMidYMid meet" color-interpolation-filters="sRGB" style="margin: auto;"> <rect data-v-70b83f88="" x="0" y="0" width="100%" height="100%" fill="#5b9a68" fill-opacity="0" class="background"></rect>  <g data-v-70b83f88="" fill="#feffff" class="bordersvg b-d1" transform="translate(46.125,67.88500213623047)">  <g transform="translate(-10,30)"><g><rect data-gra="graph-name-bg" stroke-width="2" class="i-icon-bg" x="0" y="0" width="257.75" height="64.22999572753906" fill-opacity="0"></rect> <!----> <!----> </g> <g transform="translate(10,3)"><g data-gra="path-name" fill-rule="" class="tp-name" opacity="0.7575190374550271" transform="matrix(1,0,0,1,0,0)"><g transform="scale(1)"><g><path d="M0.61-31.36C6.7-36.12 18.48-39.47 27.89-39.67L28.61-39.67C35.47-39.67 43.1-37.45 47.18-30.47L47.3-30.23C49.48-26.31 50.21-21.19 50.21-16.39 50.21-13.2 49.88-10.17 49.44-7.75L47.78-7.75C36.73-7.75 17.68-7.55 17.68 1.37 17.68 2.74 18.12 4.32 19.13 6.13L19.17 6.22C21.75 10.78 26.19 12.79 31.04 12.79L31.2 12.79C43.63 12.71 49.03 2.58 50.93-6.46L65.02-6.34C65.34-6.34 65.46-6.46 65.46-6.66 65.46-6.74 65.42-6.86 65.34-6.98 65.22-7.26 64.81-7.59 64.33-7.59L51.09-7.75C51.54-10.45 51.78-13.2 51.78-15.86 51.78-17.88 51.66-19.86 51.42-21.71 49.92-34.47 39.95-40.96 27.77-40.96 24.78-40.96 22-40.6 19.61-40.2 8.84-38.42-6.46-32.97-6.46-22.36-6.46-20.22-5.81-17.84-4.4-15.26-3.87-14.29-3.15-13.24-2.38-12.19-2.1-11.82-1.74-11.66-1.41-11.66-1.13-11.66-0.93-11.78-0.93-12.03-0.93-12.11-0.97-12.19-1.01-12.27L-1.09-12.39C-1.82-13.36-2.42-14.33-2.91-15.21-4.24-17.64-4.84-19.82-4.84-21.83-4.84-25.63-2.74-28.78 0.61-31.36ZM30.43 11.54C26.56 11.54 22.84 10.21 20.58 6.22L20.54 6.13C19.65 4.56 19.29 3.19 19.29 1.98 19.29-6.66 39.35-6.46 49.16-6.5 47.02 3.19 41.25 11.54 30.43 11.54ZM74.38-5.45C74.26-5.61 74.1-5.81 74.02-5.97 73.57-6.78 73.65-7.59 73.37-8.07 73.25-8.31 73.01-8.52 72.56-8.6L72.44-8.6C72.08-8.6 71.8-8.31 71.47-7.83 70.75-6.86 68.33-3.63 66.47-3.63 66.27-3.63 66.07-3.67 65.9-3.75 65.78-3.79 65.66-3.91 65.62-4.04 65.46-4.32 65.38-4.76 65.38-5.21 65.38-5.77 65.5-6.38 65.7-6.66 65.74-6.74 65.78-6.78 65.78-6.86 65.78-6.94 65.74-7.02 65.7-7.1 65.5-7.47 64.98-7.75 64.61-7.75 64.45-7.75 64.29-7.71 64.21-7.59 63.97-7.26 63.77-6.58 63.77-5.81 63.77-5.25 63.89-4.6 64.21-4.04 64.49-3.47 64.98-2.99 65.78-2.66 66.19-2.46 66.63-2.38 67.07-2.38 69.42-2.38 71.43-4.96 72.44-6.26L72.64-5.93C73.49-4.36 75.19-3.35 77-3.35L77.2-3.35C79.59-3.43 80.64-4.92 81.56-6.34 81.64-6.46 81.68-6.58 81.68-6.7 81.68-6.82 81.64-6.94 81.6-7.02 81.4-7.35 80.92-7.59 80.55-7.59 80.39-7.59 80.23-7.55 80.15-7.43L79.06-5.89C78.54-5.21 77.37-4.6 76.28-4.6 75.59-4.6 74.94-4.84 74.38-5.45ZM88.67-7.02C89.76-6.13 91.01-3.43 94.07-3.35L94.11-3.35C95.93-3.35 97.3-5.33 97.95-6.34 98.03-6.46 98.07-6.58 98.07-6.7 98.07-6.82 98.03-6.94 97.99-7.02 97.79-7.35 97.3-7.59 96.94-7.59 96.78-7.59 96.66-7.55 96.58-7.43 96.01-6.5 94.76-4.6 93.47-4.6L93.43-4.6C91.65-4.64 90.81-6.62 89.47-7.71 88.83-8.23 88.22-8.48 87.62-8.48 85.11-8.48 83.26-4.28 81.4-3.96 81.28-4.32 81.2-4.72 81.2-5.09 81.2-5.69 81.36-6.26 81.64-6.7 81.68-6.74 81.72-6.82 81.72-6.9 81.72-6.98 81.68-7.06 81.64-7.14 81.48-7.47 80.96-7.79 80.55-7.79 80.43-7.79 80.31-7.75 80.23-7.63 79.87-7.14 79.63-6.34 79.63-5.49 79.63-4.88 79.75-4.28 80.03-3.79 80.35-3.15 81.16-2.66 81.89-2.66 84.31-2.66 86.69-7.18 88.22-7.18 88.38-7.18 88.51-7.14 88.67-7.02ZM97.34-7.3C97.38-7.26 97.91-7.18 99.08-7.02 101.5-6.54 106.5-5.97 112.48-5.73L112.56-5.73C123.45-4.76 138.75-4.32 154.53-4.32L158.45-4.32C159.17-1.98 159.54 1.33 160.06 5.69 160.5 9.73 161.11 13.92 161.88 15.46 162.04 15.82 162.2 16.02 162.4 16.06L162.48 16.06C163.05 16.06 163.21 13.84 163.21 10.86 163.21 8.88 163.17 6.54 163.09 4.28L162.97-4.36C171.28-4.44 179.51-4.64 187.18-4.96 187.46-0.48 187.95 3.83 188.67 7.59L188.67 7.75C188.92 8.15 189.4 8.39 189.76 8.39 190.01 8.39 190.17 8.27 190.17 8.03L190.17 7.91C189.44 4.04 188.96-0.4 188.67-5 196.3-5.37 203.12-5.81 208.81-6.34 209.09-6.38 209.22-6.5 209.22-6.66 209.22-6.74 209.18-6.86 209.13-6.94 209.01-7.26 208.57-7.59 208.13-7.59L208.05-7.59C202.6-7.06 195.9-6.62 188.63-6.3 188.43-9.61 188.35-13.32 188.35-16.95 188.35-25.02 188.79-32.97 189.44-36.81 189.44-37.37 188.96-37.78 188.35-37.78 188.15-37.78 187.95-37.69 187.91-37.45 187.22-33.5 186.82-25.22 186.82-16.99 186.82-13.28 186.9-9.56 187.06-6.26 179.55-5.93 171.32-5.69 163.05-5.61 163.13-7.22 163.17-12.59 163.17-18.77 163.17-28.01 163.05-38.99 162.52-41.41L162.48-41.57C162.28-41.93 161.8-42.17 161.43-42.17 161.15-42.17 160.99-42.05 160.99-41.81L160.99-41.69C161.51-39.39 161.63-29.1 161.63-20.06 161.63-13.2 161.55-7.06 161.47-5.61L159.41-5.57 159.25-5.85C158-8.48 156.02-9.61 153.04-9.61 151.58-9.61 149.93-9.32 147.95-8.84 141.17-7.14 130.11-6.78 122-6.78 117.08-6.78 113.24-6.9 111.99-6.98 105.78-7.55 101.82-7.75 99.68-7.75 98.23-7.75 97.59-7.67 97.59-7.51 97.63-7.47 97.63-7.43 97.75-7.39 97.5-7.39 97.34-7.35 97.34-7.3ZM134.59-5.81C139.8-6.09 144.93-6.62 148.88-7.63 150.78-8.11 152.39-8.35 153.64-8.35 155.38-8.35 156.47-7.87 157.23-6.9 157.48-6.54 157.76-6.09 158-5.57L154.01-5.57C147.35-5.57 140.81-5.65 134.59-5.81ZM159.86-4.32L161.43-4.32C161.39-3.91 161.39-3.39 161.39-2.74 161.39-1.05 161.47 1.33 161.55 3.79 161.59 5 161.63 6.22 161.75 7.43 161.19 2.95 160.79-1.49 159.86-4.32ZM217.25-5.45C217.13-5.61 216.96-5.81 216.88-5.97 216.44-6.78 216.52-7.59 216.24-8.07 216.12-8.31 215.87-8.52 215.43-8.6L215.31-8.6C214.95-8.6 214.66-8.31 214.34-7.83 213.61-6.86 211.19-3.63 209.34-3.63 209.13-3.63 208.93-3.67 208.77-3.75 208.65-3.79 208.53-3.91 208.49-4.04 208.33-4.32 208.25-4.76 208.25-5.21 208.25-5.77 208.37-6.38 208.57-6.66 208.61-6.74 208.65-6.78 208.65-6.86 208.65-6.94 208.61-7.02 208.57-7.1 208.37-7.47 207.84-7.75 207.48-7.75 207.32-7.75 207.16-7.71 207.08-7.59 206.83-7.26 206.63-6.58 206.63-5.81 206.63-5.25 206.75-4.6 207.08-4.04 207.36-3.47 207.84-2.99 208.65-2.66 209.05-2.46 209.5-2.38 209.94-2.38 212.28-2.38 214.3-4.96 215.31-6.26L215.51-5.93C216.36-4.36 218.05-3.35 219.87-3.35L220.07-3.35C222.45-3.43 223.5-4.92 224.43-6.34 224.51-6.46 224.55-6.58 224.55-6.7 224.55-6.82 224.51-6.94 224.47-7.02 224.27-7.35 223.78-7.59 223.42-7.59 223.26-7.59 223.1-7.55 223.02-7.43L221.93-5.89C221.4-5.21 220.23-4.6 219.14-4.6 218.46-4.6 217.81-4.84 217.25-5.45ZM223.91-9.4C224.07-9.32 224.19-9.32 224.31-9.32 224.91-9.32 224.83-10.21 224.87-10.94L224.87-11.02C224.87-11.1 224.83-11.18 224.79-11.26 224.59-11.58 224.11-11.87 223.74-11.87 223.5-11.87 223.34-11.78 223.3-11.54 223.3-11.14 223.22-10.74 223.22-10.41 223.22-10.21 223.26-10.01 223.34-9.85 223.42-9.69 223.62-9.52 223.91-9.4ZM231.21-6.5C231.25-6.58 231.29-6.62 231.29-6.7 231.29-6.78 231.25-6.86 231.21-6.94 231.13-7.1 230.97-7.26 230.77-7.39 230.52-7.51 230.36-7.59 230.2-7.59 229.56-7.59 229.27-6.42 227.74-5.29 227.05-4.8 226.49-4.6 226.04-4.6 225.44-4.6 225.04-4.92 224.75-5.37 224.59-5.69 224.51-6.01 224.51-6.34 224.51-6.54 224.55-6.74 224.59-6.9 224.63-6.94 224.63-6.98 224.63-7.06 224.63-7.14 224.59-7.22 224.55-7.3 224.39-7.63 223.87-7.91 223.5-7.91 223.3-7.91 223.18-7.83 223.1-7.67 223.02-7.43 222.94-7.14 222.94-6.86 222.94-6.38 223.1-5.81 223.38-5.33 223.99-4.24 225.2-3.35 226.65-3.35 228.06-3.35 229.68-4.2 231.21-6.5Z" transform="translate(6.460000038146973, 42.16999816894531)"></path></g> <!----> <!----> <!----> <!----> <!----> <!----> <!----></g></g> <!----></g></g></g><defs v-gra="od"></defs></svg>